<?xml version="1.0" encoding="utf-8"?>
<!-- Generator: Adobe Illustrator 23.0.6, SVG Export Plug-In . SVG Version: 6.00 Build 0)  -->
<svg version="1.1" id="Ebene_1" xmlns="http://www.w3.org/2000/svg" xmlns:xlink="http://www.w3.org/1999/xlink" x="0px" y="0px"
	 viewBox="0 0 23.9 20.7" style="enable-background:new 0 0 23.9 20.7;" xml:space="preserve">
<style type="text/css">
	.st0{fill:none;}
	.st1{fill:none;stroke:#231815;stroke-width:3.5;stroke-linecap:round;stroke-dasharray:0,6.5;}
	.st2{fill:none;stroke:#231815;stroke-width:3.25;stroke-linecap:round;stroke-dasharray:0,6.5;}
	.st3{fill:none;stroke:#231815;stroke-width:3;stroke-linecap:round;stroke-dasharray:0,6.5;}
	.st4{fill:none;stroke:#231815;stroke-width:2.75;stroke-linecap:round;stroke-dasharray:0,6.5;}
	.st5{fill:none;stroke:#231815;stroke-width:2.5;stroke-linecap:round;stroke-dasharray:0,6.5;}
	.st6{fill:none;stroke:#231815;stroke-width:2.25;stroke-linecap:round;stroke-dasharray:0,6.5;}
	.st7{fill:none;stroke:#231815;stroke-width:2;stroke-linecap:round;stroke-dasharray:0,6.5;}
	.st8{fill:none;stroke:#231815;stroke-width:1.75;stroke-linecap:round;stroke-dasharray:0,6.5;}
	.st9{fill:none;stroke:#231815;stroke-width:1.499;stroke-linecap:round;stroke-dasharray:0,6.5;}
	.st10{fill:none;stroke:#231815;stroke-width:1.25;stroke-linecap:round;stroke-dasharray:0,6.5;}
	.st11{fill:url(#大きさが変化する点__x28_小_x29_);}
</style>
<pattern  y="20.7" width="83" height="65" patternUnits="userSpaceOnUse" id="大きさが変化する点__x28_小_x29_" viewBox="1.8 -132.2 83 65" style="overflow:visible;">
	<g>
		<rect x="1.8" y="-132.2" class="st0" width="83" height="65"/>
		<g>
			<line class="st1" x1="84.8" y1="-67.2" x2="84.8" y2="-1.8"/>
		</g>
		<g>
			<line class="st1" x1="1.8" y1="-67.2" x2="1.8" y2="-1.8"/>
			<line class="st2" x1="6.4" y1="-70.5" x2="6.4" y2="-1.8"/>
			<line class="st3" x1="11" y1="-67.2" x2="11" y2="-1.8"/>
			<line class="st4" x1="15.6" y1="-70.5" x2="15.6" y2="-1.8"/>
			<line class="st5" x1="20.2" y1="-67.2" x2="20.2" y2="-1.8"/>
			<line class="st6" x1="24.8" y1="-70.5" x2="24.8" y2="-1.8"/>
			<line class="st7" x1="29.4" y1="-67.2" x2="29.4" y2="-1.8"/>
			<line class="st8" x1="34" y1="-70.5" x2="34" y2="-1.8"/>
			<line class="st9" x1="38.6" y1="-67.2" x2="38.6" y2="-1.8"/>
			<line class="st10" x1="43.2" y1="-70.5" x2="43.2" y2="-1.8"/>
			<line class="st1" x1="84.8" y1="-67.2" x2="84.8" y2="-1.8"/>
			<line class="st2" x1="80.1" y1="-70.5" x2="80.1" y2="-1.8"/>
			<line class="st3" x1="75.5" y1="-67.2" x2="75.5" y2="-1.8"/>
			<line class="st4" x1="70.9" y1="-70.5" x2="70.9" y2="-1.8"/>
			<line class="st5" x1="66.3" y1="-67.2" x2="66.3" y2="-1.8"/>
			<line class="st6" x1="61.7" y1="-70.5" x2="61.7" y2="-1.8"/>
			<line class="st7" x1="57.1" y1="-67.2" x2="57.1" y2="-1.8"/>
			<line class="st8" x1="52.5" y1="-70.5" x2="52.5" y2="-1.8"/>
			<line class="st9" x1="47.9" y1="-67.2" x2="47.9" y2="-1.8"/>
		</g>
		<g>
			<line class="st1" x1="1.8" y1="-67.2" x2="1.8" y2="-1.8"/>
		</g>
		<g>
			<line class="st1" x1="84.8" y1="-132.2" x2="84.8" y2="-66.8"/>
		</g>
		<g>
			<line class="st1" x1="1.8" y1="-132.2" x2="1.8" y2="-66.8"/>
			<line class="st2" x1="6.4" y1="-135.5" x2="6.4" y2="-66.8"/>
			<line class="st3" x1="11" y1="-132.2" x2="11" y2="-66.8"/>
			<line class="st4" x1="15.6" y1="-135.5" x2="15.6" y2="-66.8"/>
			<line class="st5" x1="20.2" y1="-132.2" x2="20.2" y2="-66.8"/>
			<line class="st6" x1="24.8" y1="-135.5" x2="24.8" y2="-66.8"/>
			<line class="st7" x1="29.4" y1="-132.2" x2="29.4" y2="-66.8"/>
			<line class="st8" x1="34" y1="-135.5" x2="34" y2="-66.8"/>
			<line class="st9" x1="38.6" y1="-132.2" x2="38.6" y2="-66.8"/>
			<line class="st10" x1="43.2" y1="-135.5" x2="43.2" y2="-66.8"/>
			<line class="st1" x1="84.8" y1="-132.2" x2="84.8" y2="-66.8"/>
			<line class="st2" x1="80.1" y1="-135.5" x2="80.1" y2="-66.8"/>
			<line class="st3" x1="75.5" y1="-132.2" x2="75.5" y2="-66.8"/>
			<line class="st4" x1="70.9" y1="-135.5" x2="70.9" y2="-66.8"/>
			<line class="st5" x1="66.3" y1="-132.2" x2="66.3" y2="-66.8"/>
			<line class="st6" x1="61.7" y1="-135.5" x2="61.7" y2="-66.8"/>
			<line class="st7" x1="57.1" y1="-132.2" x2="57.1" y2="-66.8"/>
			<line class="st8" x1="52.5" y1="-135.5" x2="52.5" y2="-66.8"/>
			<line class="st9" x1="47.9" y1="-132.2" x2="47.9" y2="-66.8"/>
		</g>
		<g>
			<line class="st1" x1="1.8" y1="-132.2" x2="1.8" y2="-66.8"/>
		</g>
		<g>
			<line class="st1" x1="84.8" y1="-197.2" x2="84.8" y2="-131.8"/>
		</g>
		<g>
			<line class="st1" x1="1.8" y1="-197.2" x2="1.8" y2="-131.8"/>
			<line class="st2" x1="6.4" y1="-200.5" x2="6.4" y2="-131.8"/>
			<line class="st3" x1="11" y1="-197.2" x2="11" y2="-131.8"/>
			<line class="st4" x1="15.6" y1="-200.5" x2="15.6" y2="-131.8"/>
			<line class="st5" x1="20.2" y1="-197.2" x2="20.2" y2="-131.8"/>
			<line class="st6" x1="24.8" y1="-200.5" x2="24.8" y2="-131.8"/>
			<line class="st7" x1="29.4" y1="-197.2" x2="29.4" y2="-131.8"/>
			<line class="st8" x1="34" y1="-200.5" x2="34" y2="-131.8"/>
			<line class="st9" x1="38.6" y1="-197.2" x2="38.6" y2="-131.8"/>
			<line class="st10" x1="43.2" y1="-200.5" x2="43.2" y2="-131.8"/>
			<line class="st1" x1="84.8" y1="-197.2" x2="84.8" y2="-131.8"/>
			<line class="st2" x1="80.1" y1="-200.5" x2="80.1" y2="-131.8"/>
			<line class="st3" x1="75.5" y1="-197.2" x2="75.5" y2="-131.8"/>
			<line class="st4" x1="70.9" y1="-200.5" x2="70.9" y2="-131.8"/>
			<line class="st5" x1="66.3" y1="-197.2" x2="66.3" y2="-131.8"/>
			<line class="st6" x1="61.7" y1="-200.5" x2="61.7" y2="-131.8"/>
			<line class="st7" x1="57.1" y1="-197.2" x2="57.1" y2="-131.8"/>
			<line class="st8" x1="52.5" y1="-200.5" x2="52.5" y2="-131.8"/>
			<line class="st9" x1="47.9" y1="-197.2" x2="47.9" y2="-131.8"/>
		</g>
		<g>
			<line class="st1" x1="1.8" y1="-197.2" x2="1.8" y2="-131.8"/>
		</g>
	</g>
</pattern>
<circle class="st11" cx="12" cy="10.4" r="11.6"/>
</svg>
